<svg width="549" height="549" viewBox="0 0 549 549" fill="none" xmlns="http://www.w3.org/2000/svg">
<path fill-rule="evenodd" clip-rule="evenodd" d="M549 274.5C549 426.102 426.102 549 274.5 549C122.898 549 0 426.102 0 274.5C0 122.898 122.898 0 274.5 0C426.102 0 549 122.898 549 274.5ZM448.649 413C407.884 464.189 345.024 497 274.5 497C203.976 497 141.116 464.189 100.351 413H305.798C314.112 426.783 329.23 436 346.5 436C363.77 436 378.888 426.783 387.202 413H448.649ZM495.733 250.614L375.886 351.178C368.746 345.549 359.953 341.925 350.354 341.154L327.664 296.621C383.699 261.719 429.985 212.403 461.446 153.796C479.861 182.259 491.953 215.194 495.733 250.614ZM497 274.569L388.248 365.823C391.541 371.874 393.558 378.72 393.935 386H467.089C486.099 353.235 496.988 315.174 497 274.569ZM309.996 358.106L289.312 317.513C240.992 340.282 187.088 353 130.241 353C107.688 353 85.597 350.998 64.1346 347.161C68.8282 360.752 74.8018 373.746 81.9114 386H299.065C299.614 375.414 303.628 365.745 309.996 358.106ZM361.212 197.577C343.535 216.105 323.664 232.488 302.023 246.298L282.68 208.336C290.492 200.128 296.227 189.925 299.045 178.57L361.212 197.577ZM263.671 267.189L243.879 228.344C240.814 228.776 237.683 229 234.5 229C197.773 229 168 199.227 168 162.5C168 154.501 169.412 146.832 172.001 139.729L112.823 121.637C75.1201 161.5 52 215.3 52 274.5C52 278.077 52.0844 281.635 52.2514 285.171C77.9937 291.984 105.014 295.612 132.874 295.612C179.511 295.612 223.796 285.446 263.671 267.189ZM421.698 107.647C382.472 73.0148 330.94 52 274.5 52C218.717 52 167.728 72.5284 128.676 106.443L181.338 122.543C193.473 106.423 212.769 96 234.5 96C270.087 96 299.145 123.954 300.915 159.101L375.271 181.834C393.924 159.51 409.605 134.574 421.698 107.647Z" fill="url(#paint0_linear)"/>
<defs>
<linearGradient id="paint0_linear" x1="274.5" y1="0" x2="274.5" y2="549" gradientUnits="userSpaceOnUse">
<stop stop-color="#59C0D7"/>
<stop offset="0.494792" stop-color="#4BA7D8"/>
<stop offset="0.630208" stop-color="#479ED7"/>
<stop offset="1" stop-color="#3B85D6"/>
</linearGradient>
</defs>
</svg>
